<?xml version="1.0" standalone="no"?>
<!DOCTYPE svg PUBLIC "-//W3C//DTD SVG 20010904//EN"
 "http://www.w3.org/TR/2001/REC-SVG-20010904/DTD/svg10.dtd">
<svg version="1.0" xmlns="http://www.w3.org/2000/svg"
 width="61.000000pt" height="54.000000pt" viewBox="0 0 61.000000 54.000000"
 preserveAspectRatio="xMidYMid meet">
<metadata>
Created by potrace 1.11, written by Peter Selinger 2001-2013
</metadata>
<g transform="translate(0.000000,54.000000) scale(0.100000,-0.100000)"
fill="#000000" stroke="none">
<path d="M443 454 c11 -20 -91 -57 -153 -56 -63 0 -143 28 -133 46 3 6 -3 2
-15 -8 -30 -26 -28 -36 15 -112 l38 -65 10 32 c6 17 23 42 39 55 29 25 36 26
189 24 82 -1 88 0 79 17 -6 10 -25 32 -43 48 -18 17 -29 25 -26 19z"/>
</g>
</svg>
